/* XPM */
static char *_c44e93dd17d4069d3d484b470553da7[] = {
/* columns rows colors chars-per-pixel */
"16 16 70 1 ",
"  c #00172E",
". c #001930",
"X c #001B31",
"o c #001F35",
"O c #002237",
"+ c #002338",
"@ c #012339",
"# c #00253A",
"$ c #012A3F",
"% c #032A3F",
"& c #032B3F",
"* c #09293E",
"= c #032B40",
"- c #052C41",
"; c #072D42",
": c #0A3044",
"> c #0D3246",
", c #11374A",
"< c #163B4E",
"1 c #183C4F",
"2 c #193D50",
"3 c #1D4154",
"4 c #204456",
"5 c #224557",
"6 c #234657",
"7 c #234658",
"8 c #254859",
"9 c #25485A",
"0 c #294B5C",
"q c #2A4D5E",
"w c #2C4E5F",
"e c #2A4E60",
"r c #2F4E60",
"t c #2E4F60",
"y c #2D5163",
"u c #2F5364",
"i c #2F5365",
"p c #305163",
"a c #305365",
"s c #315466",
"d c #345465",
"f c #385A6B",
"g c #3B5C6D",
"h c #3D5C6C",
"j c #405E6E",
"k c #42606F",
"l c #426170",
"z c #4B6877",
"x c #527281",
"c c #597482",
"v c #607B88",
"b c #647E8B",
"n c #68828F",
"m c #6F8995",
"M c #708995",
"N c #778F9B",
"B c #7C919C",
"V c #7D94A0",
"C c #8197A2",
"Z c #8298A3",
"A c #879CA7",
"S c #8BA0AA",
"D c #8FA4AD",
"F c #93A7B0",
"G c #97ABB5",
"H c #CCDCE3",
"J c #D1E0E6",
"K c #D5E4E9",
"L c #D9E7EC",
"P c #DEECF1",
/* pixels */
"xesiaayhgiaaaaex",
"rX@OO@X55.O@O@Xr",
"a@=$$-w55w=$$$@a",
"iO$$O>w31a2#$$@a",
"iO=OcZhfjqyl#$Oa",
"aO->VPn28r8r1$Oa",
"pXw5mJB38bd8rqXp",
"f50<VJb8a95f585f",
"hq8<CJb0d88j55qg",
"aXp5MKB30zperrXp",
"aO:,NJb,201r3-Os",
"iO$oMKGSFAFzO$+u",
"i@$$#NKHHLA$$-Ou",
"a@$$$*vccv*#$&#s",
"rX#O@O ,, OO@#Xw",
"xraaiaighaayiirx"
};
