/* XPM */
static char *edd4e6b2c4ba4deabdfd3278e8cd0937[] = {
/* columns rows colors chars-per-pixel */
"64 64 100 2 ",
"   c #00152C",
".  c #00182F",
"X  c #001E34",
"o  c #002136",
"O  c #01253A",
"+  c #00293E",
"@  c #092A3F",
"#  c #032C41",
"$  c #0A2E42",
"%  c #112F43",
"&  c #0B3145",
"*  c #0F3448",
"=  c #123246",
"-  c #133549",
";  c #153A4D",
":  c #1A3B4E",
">  c #1A3E51",
",  c #213F52",
"<  c #1D4153",
"1  c #224356",
"2  c #294457",
"3  c #254759",
"4  c #284759",
"5  c #26495A",
"6  c #2B4C5D",
"7  c #304D5F",
"8  c #2E4F60",
"9  c #304F61",
"0  c #2F5061",
"q  c #315365",
"w  c #395565",
"e  c #375768",
"r  c #3A5768",
"t  c #3C5B6B",
"y  c #415F6F",
"u  c #41606F",
"i  c #446271",
"p  c #496675",
"a  c #4C6977",
"s  c #4E6B79",
"d  c #526D7B",
"f  c #55717E",
"g  c #567281",
"h  c #5A7582",
"j  c #5F7885",
"k  c #617A86",
"l  c #647D8A",
"z  c #67808C",
"x  c #69818D",
"c  c #6F8692",
"v  c #708792",
"b  c #748A96",
"n  c #798E98",
"m  c #7D919B",
"M  c #80949F",
"N  c #879AA4",
"B  c #8A9CA5",
"V  c #8FA1AA",
"C  c #93A4AD",
"Z  c #9BABB3",
"A  c #A1B0B7",
"S  c #A4B2BA",
"D  c #AAB7BE",
"F  c #A1B9C4",
"G  c #ADBAC0",
"H  c #A7BEC9",
"J  c #A8BFC9",
"K  c #B3BEC4",
"L  c #ADC2CC",
"P  c #B2C6CF",
"I  c #BBC6CB",
"U  c #BFC9CE",
"Y  c #B3C7D0",
"T  c #B5C9D1",
"R  c #BBCDD5",
"E  c #BCCFD8",
"W  c #BFD0D6",
"Q  c #C0C9CE",
"!  c #C4CED2",
"~  c #C8CFD4",
"^  c #C1D0D7",
"/  c #C9D2D6",
"(  c #C4D4DA",
")  c #CCD9DE",
"_  c #D3DADE",
"`  c #CEDDE2",
"'  c #D2DEE3",
"]  c #D6E1E6",
"[  c #DCE3E6",
"{  c #DCE6E9",
"}  c #DEE8EB",
"|  c #E2E6E9",
" . c #E6EBED",
".. c #E9ECEE",
"X. c #EBEFF0",
"o. c #EDF1F2",
"O. c #F2F4F5",
"+. c #F7F7F8",
"@. c #F7F8F9",
"#. c #FDFDFD",
/* pixels */
"Y R E E E E E E E E E E E E E E R W E E E E E E E E E E E E E E E E E E E E E E R E E E E E E E E E E E E E E E E E E E E E E Y ",
"R g 6 q q q q q q q q q q q q q q q q q q q q q q q q q q q q q q q q q q q q q q q q q q q q q q q q q q q q q q q q q q 6 g R ",
"E 9 . o X X X X X X X X X X X X o o X o X X o X X X X X X o o . . o X X X X X X o o X X X X o o X X X X X X X X X X X X o . 8 E ",
"E q o # # + # + # # # + # # # # + + + + # + + # # + # # + + + t y O # # # # # # + + + + + # + + # + # # + # + + # # # + # o q E ",
"E q X # + + + + + + + + + + + + + + + + + + + + + + + + + O & |  .* O + + + + + + + + + + + + + + + + + + + + + + + + + # X q E ",
"E q X # + + + + + + + + + + + + + + O + + + + + + + + + + o 7 B B 8 o # + + + + + + + + + + + + + + + + + + + + + + + + # X q E ",
"E q X # + + + + + + + + + + + + + + + + + + + + + + + + X w y 1 1 y w X + + + + + + + + + + + + + + + + + + + + + + + + # X q E ",
"E q X # + + + + + + + + O + + + + + + + + + + + + + + X q a . 8 q . a q . + + + + + + + + + + + + + + + + + + + + + + + # X q E ",
"E q X + + + + + + + + + + + + + + + + + + + + + + + X q a o o 8 7 o O a q X + + + + + + + + + + + + + + + + + + + + + + + X q E ",
"E q X + + + + + + + + + + + + + + + + + + + + + + X q d o + O 7 6 o + o a q X + + + + + + + + + + + + + + + + + + + + + + X q E ",
"E q X # + + + + + + + + O + + + + + + + + + + + + q f O + + o 8 q o + + o a q O + + + + + + + + + + + + + + + + + + + + # X q E ",
"E q X # + + + + + + + + + + + + + + + + + + + . f Q u d d d p N N i f d d u U j . # O + + + + + + + # O + + + + + + + + # X q E ",
"E q X # + + + + + + + + + + + + + + + + + + o 4 v x d @ $ & + q q + $ $ + s x v 6 o + + + + + + + O # + + + + + # O O + + X q R ",
"E q X # + + O + + + + + + + + + + + + + + o 9 d 7 9 9 s X + o 6 7 o + o d q q 6 d q o + + + + + + + + + + + O # + # # # # X q E ",
"R q X # + + + + + + + + + + + + + + + + o 4 f o 6 u   u d O o 8 7 O o d u   u 7 X j 7 X + + + + + + + + + + # O + + # O # o q E ",
"R q X # + + + + + + + + + + + + + + # o 4 f @ o 8 t O o y s . 9 8 . s y o o t q X O f 9 X + + + + + + + # O # + + + # O # X q E ",
"E q X # # O # # + + + + + + + + + o . 3 s o o o 3 w X + X t i 1 1 i t X + o w 4 o + O f 7 . O + O O # + + + + + + + + + + X q E ",
"E q X # O # # O + + + + + + + + o q N h : ; > & f M O $ $ + t N N t + % $ + m f O & $ $ f N q O # + + + + + + + + + + + # X q E ",
"E q X # O # O # + + + + + # + # X S #._ _ ' ' _ X.O.k s d d u  . .i d d s f @./ i d f i l #.D X # # + + + + + + + # + + # X q R ",
"E q o # # # O # + + + + + o # X 4 b ' ^ T T T P ' Z X + + O u v c u O + + O x u o # O % g n l 6 X # O + + + + + + O + + # o q R ",
"R q X # O O # O + + + + + # X 9 d 7 ] P ^ Y Y L ` V X + o s e 1 1 e s o + o w 6 O + @ l 1 9 - g 9 X # + + + + + # O # # # X q R ",
"E q X # # # # # + + + + # X 6 j X 6 [ P T ^ T L _ C X O s u   8 7   u a o o i 9 X @ k 3 . i - o h 6 X # + + + + # # O O # X q E ",
"E q X # # O O # + + # # X 4 j # X 8 [ P Y T ^ L ] C   d u o O 8 8 O o i d . t 6 o j 3 o + i ; O O j 9 o # + O # O # O # # X q E ",
"E q X # O # # O + + + X > s O o X 4 ] P T P T T ' B q u . + o 1 2 X + . u r i q u 3 . + X r $ o o O d , . # # O # O # # # X q E ",
"E q X # O # # O # O # w j > - > & d ..T Y Y Y Y .. .l $ : : & b n $ ; : $ z  ./ t & : ; ; Z p & > - > j e O + # # O # # O X q R ",
"E q X # # O O # # X 6 ~ h i s s y S #.^ R ! R ) #.#.A u s a p [ | a a a u Z #.#.c i s i x #.G y s d y h ~ 9 X # O # O # # X q E ",
"R q X # # # # # X , g g d - X O . 7 { P Y Y P Y { ~ p O o O . i i . + o o p I Z 7 X O O o x < X + . = d g f 2 o # # # O # X q E ",
"E q X # O # # o , g $ d = g > O O 7 ] P Y P R Y _ N : f @ + O 5 5 O + @ j , q 3 r i o # O t - + o > g = d $ g , X # O # # X q E ",
"E q X # # # X , l $ # h # $ h > . 0 [ P Y R R L ] C   6 f @ o 8 9 o + h 9   u 9 . i t o O i ; X : g $ + h # # g , X # # # X q E ",
"E q X # # X , l & O # g $ X - l * 5 [ P R R P L ` C o o q h o 8 7 o f q o O u 9 o o y t . i * - l - o & g # O $ l > X # # X q E ",
"E q X O X : h $ X O O g # O X = d t ' T R P Y L ` C   + . 7 p 3 4 p 8 . + . w 3 X O . a w 7 1 g % X o + g O O X $ h : X O X q E ",
"E q X 3 G M 6 > 3 , 5 b 3 , 3 > 0 V ..R Y T T R ....d < 4 : p S S p : 1 2 < Z n ; 3 3 < l G B 0 > 5 1 5 b 5 , 3 > 9 M G 5 X q E ",
"W w   f #.C 8 p u u a A i u i p q D #.^ R R T ( @.#.S t i i t | | t u i y a o.Q t i i q x #.K 8 i i u p S a u i p 8 C #.f   q W ",
"E q X + e d 6   O o O d @ o o . e l ' R Y P Y L ] I O o o X u g d u o o O   a w . O X : d d d t . O o O d O o o . 4 d r @ o q W ",
"E q o + o O f w o + # h @ + o i i 3 [ P ^ Y Y P ' B X + O g 7 1 4 1 f + + O t 6 O O - j % e % i p o @ # h # @ o q j O X + o q E ",
"E q o + + + O d 9 o $ f $ o e p   7 [ P Y ^ Y L ] C . @ f q . 8 0   8 f O X u 9 . : h = o i ; X i t o $ h @ o q f O + + + X q E ",
"E q X + + + O O d q O j O e p o O 8 [ P Y T ^ P ' V . j w o O 8 8 o o q f . u 6 * h = O O i ; + o p t O h O 9 f O O + + # X q E ",
"E q X # + O + + O f w i e t X O . 2 ] L Y Y T Y ' C r q . O . 5 2 X O   9 i q w i $ X O . t @ o o X t e i q f O O + + + + o q E ",
"E q o + + + + + + O f Z h < 5 5 : x O.T T T Y R o.+.m ; 4 5 > Z Z > 4 5 > a Q S 6 < 5 1 8 Q l : 4 4 < h C f O + + + + + + o q E ",
"E q o + + + + + + O % S z y a a t Z #.^ R R R ( @.#.Z t a p i _ _ i p a u d O.~ t a a i k @.A t a a u k S - O + + + + + # X q E ",
"E q X # + + + + + + O o s 3   O . 4 [ L Y Y Y T ] K p % . O . 9 w   O X % a s d i o o o . s - X o . 1 s o O + + + + + + + X q R ",
"E q X + + + + + + + + + @ f 4 O O 8 [ P Y Y W Y ' N $ x ; O O 6 6 O O = z = e 4 0 h O + O y - + o 4 f + + + + + + + + + + o q E ",
"E q X # + + + + + + + + + + d 4 . 0 [ P P W R L ' Z   : l - . q 9 X = z :   u 9   w s O o i - X 4 g + o + + + + + + + + # X q E ",
"E q X # + + + + + + + O + O @ f : 2 { L W R P L ' V o O : z & 1 1 $ z ; + O w 6 + O e d o i $ < g + O + + + + + + + + + + o q E ",
"E q X + + + + + + + + + + + O @ a i _ Y R L Y L ` Z   X   % t j h u =   X   v i   .   6 r q 7 f + O + + + + + + + + + + # X q E ",
"E q X # + + + + + + + + + + + + + C O.R T R T R O.@.M f k f n +.@.n d k f M #.[ k j h f M _ Z $ O + + + + + + + + + + + + X q E ",
"E q X + + + + + + + + + + + + + o n #.] P R R ^ @.#. .[ { { { #.#.{ { { [  .#.#.| [ } ] ..#.m o + + + + + + + + + + + + # X q E ",
"E q X + + + + + + + + + + + + + + O 6 U ` L T L ^ ` L L L L P ) ) P L L L J _ ^ L L F ) U 4 O + + + + + + + + + + + + + + o q E ",
"E q X # + + + + + + + + + O + + # # X = ! ' J T T T Y T Y ^ T Y Y T ^ T T Y T Y T L ' ~ = X # # + + + + + + + + + + + + + X q R ",
"E q X # + + + + + + + + + + + + O # # X = ^ ' J R R Y Y ^ T Y R R Y T ^ Y Y R R H ' ~ = X # O O + + + + + + + + + + + + + X q E ",
"E q X # + + + + + + + + + + + + # O O # o = / ' P R Y ^ T Y T T R Y T T ( Y R L ` ~ - O # # O # + + + + + + + + + + + + # X q E ",
"E q X + + + + + + + + + + + + + # O # # # o - ^ _ Y T L L L J Y Y J L J L T Y ) ~ ; X # O # # O + + + + + + + + + + + + # X q E ",
"E q X # + + + + + + + + + + + + O # O O # # X , ..O.' { { { ] o.O.] [ { { ] O.o., X # # O # # # + + + + + O + + + + + + # X q E ",
"E q X # + + + + + O + + + + + + # # # # O # # o N [ n k x x j K K j x x j n [ B O # O # # O O # + + + + + + + + + + + + + X q E ",
"E q X # + + + + + + + + + + + + # O O # # O # O @ - i =   X   6 2   X   = a - # O # # O # # # # + + + + + + + + + + + + # X q E ",
"E q X # + + + + + + + + + + + + O # # O # # O # + o * l 1 o O 8 9 + o 1 l = o # O O # # O # O O + + + + + + + + + + + + # X q E ",
"R q X # + # # O + + + + + + + + # # O # # O # O + # O $ l > . q 8 . > l * o # + # O # # O # O # # # O # # O O # + + + + + X q E ",
"E q X + + O # + + + + + + + + + O # # O O # O # + + # o - l = 2 4 - l * o # + + O # # O O # # # O O # # O # # O + + + + + X q E ",
"E q X # + + + + + + + + + + + + O # # O # # O O + + + + o - h t t h = o + + + + O # # O # # O O # O # O # # # # + + + + # X q E ",
"R q X # + + # O + + + + + + + + # O # # # O # # + + + + # o # V C # o # + + + + # O # # # O # # # # O # # O O # + + + + # X q E ",
"R q O # # # # # + # # # + + + # # # # # # # # # # # + # # # o t t o # # + # + # # # # # # # # # # # O # # # # # # # # # # o q E ",
"E 9   o X o X X X X X X X X X X X X X X X X X o X X X X o o o . . o X X X X X X X X X X X X X X X X X X o X X X X X X o o   9 E ",
"E g 6 q q q q q q q q q q q q q q q q q q q q q q q q q q q q q q q q q q q q q q q q q q q q q q q q q q q q q q q q q q 6 g R ",
"Y R E E E E E E E R E E E E E E E E E E R R E E E E E R E E E E E E E E E E E E E E E E E R E E E E E R E E E E R R E E E E R Y "
};
