/* XPM */
static char *_6d8488d11dc4631a58373740c92d298[] = {
/* columns rows colors chars-per-pixel */
"32 32 82 1 ",
"  c #00192F",
". c #001D33",
"X c #002136",
"o c #01243A",
"O c #01293E",
"+ c #0A293E",
"@ c #042C41",
"# c #0B2E42",
"$ c #0C3146",
"% c #0E3549",
"& c #123246",
"* c #133549",
"= c #1D3549",
"- c #153A4D",
"; c #1A3B4E",
": c #1A3E50",
"> c #22394C",
", c #223F51",
"< c #1D4154",
"1 c #224355",
"2 c #234759",
"3 c #26495A",
"4 c #2A4C5E",
"5 c #2D4F60",
"6 c #2E5061",
"7 c #325364",
"8 c #3B5A6A",
"9 c #415F6F",
"0 c #41606F",
"q c #4B6776",
"w c #4C6877",
"e c #4E6B79",
"r c #516D7B",
"t c #56717F",
"y c #58727F",
"u c #5A7482",
"i c #5F7885",
"p c #607986",
"a c #637C89",
"s c #6A818D",
"d c #668391",
"f c #6B8795",
"g c #6C8896",
"h c #718793",
"j c #748A96",
"k c #798E99",
"l c #81959F",
"z c #8396A0",
"x c #8598A2",
"c c #8B9DA7",
"v c #8D9FA8",
"b c #8DA0A9",
"n c #92A7B0",
"m c #95A8B1",
"M c #9DACB5",
"N c #96AEB9",
"B c #A3B3BC",
"V c #ADBDC3",
"C c #AEC3CC",
"Z c #B6C1C7",
"A c #B2C6CE",
"S c #B3C7D0",
"D c #B7CAD2",
"F c #BBCDD4",
"G c #BBCFD8",
"H c #BFD1D8",
"J c #C0CBD0",
"K c #C2D0D6",
"L c #C3D4DB",
"P c #CDD7DB",
"I c #CCD8DD",
"U c #D1DADD",
"Y c #CDDBE1",
"T c #D3DFE4",
"R c #D6E0E4",
"E c #D8E2E6",
"W c #DFE7EA",
"Q c #E2E7EA",
"! c #E4EBED",
"~ c #EDF1F2",
"^ c #F3F5F6",
"/ c #F6F8F8",
/* pixels */
"NdggdggggfffffgddgfffffffffffgdN",
"f oXXXXX..o.Xo.**.oXXXXXXXXXXo f",
"go@OOOOOOOO@@@ jk @OOOOOOO@OO@Xg",
"g.OOOOOOOOOOOo3332OOOOOOOOOOOOXg",
"fXOOOOOOOOOOX2&*&&2.OOOOOOOOOOXg",
"fXOOOOOOOOO.r0:80-9rXOOOOOOOOOXf",
"fXOOOOOo@Oo4u8$23$8u4oOOOOOOOOXf",
"fXOOOOOOo.2:;*3%*3*;:4.oOoOOOOXf",
"fX@OOOOO&q4$r*:tt-*t+2w-oOoOOOXf",
"fXOOOOO uWAKK6-ll-7v3<my.OOOOOXf",
"fXOOOOO28FDGB.4123o1O5<34oOOOOXf",
"fXOO@.2-=GAKB4%&%%775+:+:2XOO@Xf",
"fXO@.qr-tTAF^u%hh&u~9-lu-rq.OOXf",
"fo@o<w8@3LAKF8O44O8j7o8<@8w1o@of",
"f..3:,*22FDFM+4&&4&=%2&&3*1-3..f",
"d#p7$0<-pPAFP2:ap<:a*2st-28$7i$d",
"s;b3-w5*sTAF!8*kk-4l1<ca-4w-3b;d",
"g.X6#1#<7FDGB.5::3+,+3;12#1+6X.f",
"foOO487#;KAHV4$*-$674O1#%785@Oof",
"f.OOoat:uTAF/i-jj-qZ7<xp:tpXOOXf",
"fXOOoO7$1LCKZ8#22@8q8O4-$7OOOOXg",
"foOOOo@33FDGMo2**2+>#<&;4OoOOO.g",
"fXOOOOOouECKU86bb69M78zeoOOoOOXg",
"fXOOOOOX1VLS!YHWQKI~KRA2oOOOOOXg",
"fX@OOOOOoXmLCCSACACCLmXXOOOoOOXf",
"fXOOOOOOOO+nYKHHKLKYmoO@OOOOOOXf",
"fX@OoOOOoOo#FBvVVbBJ#oOOOOOOOOXf",
"fXOOOOOOOOOO#4o=*O4#OOOOOOOOO@Xf",
"f.@OOOOOOOOOo#7:,7#OOOOOOOOOOOXf",
"go@OOOOOO@OO@O@ee@O@@OOOO@OOO@og",
"f oXXXXXXXX.Xo.&#.X.XXXXXX.XXX f",
"NfgffffffffffggddgfgffffffgggdfN"
};
